# xmcd
#
# Track frame offsets: 
#        150
#        16816
#        28997
#        46241
#        61039
#        75231
#        90881
#        110292
#        124373
#        135453
#        148836
#        158146
#        170660
#
# Disc length: 2434 seconds
#
# Revision: 0
# Processed by: cddbd v1.4PL0 Copyright (c) Steve Scherf et al.
# Submitted via: ExactAudioCopy v0.90b4
#
DISCID=9d09800d
DTITLE=Thomas Michael Riley - Cow Pasture Pool and Other Texas Love Song
DTITLE=s
DYEAR=1999
DGENRE=
TTITLE0=Cow Pasture Pool
TTITLE1=First Things First
TTITLE2=Red-Neck Riviera
TTITLE3=After Work Last Night
TTITLE4=Nothing's Wrong
TTITLE5=Hope
TTITLE6=Postcards From Heaven
TTITLE7=One Heart (Lori's Song)
TTITLE8=Waltz With Me
TTITLE9=Old Friends
TTITLE10=Trailer Home
TTITLE11=When 'Ya Comin' Home?
TTITLE12=Going to Jamaica
EXTD=
EXTT0=
EXTT1=
EXTT2=
EXTT3=
EXTT4=
EXTT5=
EXTT6=
EXTT7=
EXTT8=
EXTT9=
EXTT10=
EXTT11=
EXTT12=
PLAYORDER=
